<svg width="167" height="51" viewBox="0 0 167 51" fill="none" xmlns="http://www.w3.org/2000/svg">
<rect x="5.79395" y="6" width="160.206" height="44" rx="11" stroke="black" stroke-width="2"/>
<path d="M155 7H16.7939C11.2711 7 6.79395 11.4772 6.79395 17V39C6.79395 44.5228 11.2711 49 16.7939 49H155C160.523 49 165 44.5228 165 39V17C165 11.4772 160.523 7 155 7Z" fill="black"/>
<rect x="1.5" y="1.5" width="159.206" height="43" rx="10.5" stroke="#FFAED9"/>
<rect x="3" y="3" width="156.206" height="40" rx="9" stroke="#FFAED9" stroke-width="2"/>
<path d="M150.206 1H12C5.92487 1 1 5.92487 1 12V34C1 40.0751 5.92485 45 12 45H150.206C156.281 45 161.206 40.0751 161.206 34V12C161.206 5.92487 156.281 1 150.206 1Z" fill="black" stroke="#FFAED9" stroke-width="2"/>
<path d="M49.5889 25.2866C49.7393 25.2974 50.2388 25.3027 50.502 25.3027C51.748 25.3027 52.3872 24.6851 52.3872 23.5142V19.1152L54.7075 19.1099L54.7021 23.6377C54.7021 26.1782 53.3003 27.2847 50.7114 27.2847C50.416 27.2847 49.9863 27.2686 49.5889 27.231V25.2866ZM60.1699 27.2847C57.5918 27.2847 55.5132 25.5015 55.5132 23.0361C55.5132 20.5708 57.5918 18.8252 60.1699 18.8252C62.7319 18.8252 64.8105 20.5708 64.8105 23.0361C64.8105 25.5015 62.7319 27.2847 60.1699 27.2847ZM60.1699 25.2866C61.4268 25.2866 62.4741 24.4058 62.4741 23.0469C62.4741 21.6719 61.4268 20.8179 60.1699 20.8179C58.8916 20.8179 57.8496 21.6719 57.8496 23.0469C57.8496 24.4058 58.8916 25.2866 60.1699 25.2866ZM65.7075 27V19.1099H68.0332V27H65.7075ZM76.1382 19.1099H78.4639V27H75.3862L72.1045 21.9136H71.938V27H69.6123V19.1099H72.6953L75.9448 24.3306H76.1382V19.1099ZM91.4619 24.6421V26.5381C90.7368 27.0591 89.6787 27.2847 88.5938 27.2847C86.0049 27.2847 83.9048 25.4907 83.9048 23.0684C83.9048 20.6514 86.0049 18.8252 88.5938 18.8252C89.6787 18.8252 90.7368 19.0562 91.4619 19.5771V21.5054L91.2578 21.5C90.7314 21.1294 89.8076 20.8286 88.8945 20.8286C87.3154 20.8286 86.2036 21.8491 86.2036 23.0791C86.2036 24.3252 87.3154 25.292 88.8945 25.292C89.7485 25.292 90.7314 25.002 91.2632 24.6421H91.4619ZM92.8101 27V19.1099H95.1357V27H92.8101ZM96.6826 27V19.1099H99.7549L101.291 22.7944H101.511L103.058 19.1099H106.125V27H103.794V22.0586H103.579L101.914 25.5981H100.888L99.2339 22.0586H99.0137V27H96.6826ZM107.667 27V19.1099H109.992V27H107.667Z" fill="#FFF0DD"/>
</svg>
