<svg width="167" height="51" viewBox="0 0 167 51" fill="none" xmlns="http://www.w3.org/2000/svg">
<rect x="5.79395" y="6" width="160.206" height="44" rx="11" stroke="#FFF0DD" stroke-width="2"/>
<path d="M155 7H16.7939C11.2711 7 6.79395 11.4772 6.79395 17V39C6.79395 44.5228 11.2711 49 16.7939 49H155C160.523 49 165 44.5228 165 39V17C165 11.4772 160.523 7 155 7Z" fill="#FFF0DD"/>
<rect x="1.5" y="1.5" width="159.206" height="43" rx="10.5" stroke="#1D48FF"/>
<rect x="3" y="3" width="156.206" height="40" rx="9" stroke="black" stroke-width="2"/>
<path d="M150.206 1H12C5.92487 1 1 5.92487 1 12V34C1 40.0751 5.92485 45 12 45H150.206C156.281 45 161.206 40.0751 161.206 34V12C161.206 5.92487 156.281 1 150.206 1Z" fill="#FFF0DD" stroke="#1D48FF" stroke-width="2"/>
<path d="M27.9922 27.0054H25.6665L24.7212 24.5884H23.6416H23.3354C22.8467 24.5884 22.272 24.5884 21.7617 24.5884V27H19.4307V19.1099H20.6606L23.9639 19.1045C26.252 19.1099 27.6592 20.1948 27.6592 21.833C27.6592 22.6924 27.1382 23.5464 26.1177 24.0513L26.7944 24.0566L27.9922 27.0054ZM21.7617 22.9448H23.647C24.8394 22.9448 25.3872 22.5527 25.3872 21.8545C25.3872 21.1724 24.8394 20.7856 23.647 20.7856H21.7617V22.9448ZM36.6665 20.8555H31.3545V22.2573H34.9316V23.7451H31.3545V25.249H36.6665V27H29.0234V19.1099H36.6665V20.8555ZM44.7769 27L44.5728 25.437H40.1577L39.9536 27H37.6226L38.7988 19.1099H45.937L47.1133 27H44.7769ZM40.3833 23.6807H44.3472L43.9873 20.9092H40.7432L40.3833 23.6807ZM56.7651 23.0684C56.7705 25.3564 54.7939 27.0054 52.3071 27C51.2759 27 49.8257 26.9946 49.0093 27H48.252V19.1099L50.54 19.1045V19.1099C51.147 19.1045 51.7808 19.1045 52.3071 19.1045C54.7939 19.1045 56.7651 20.7803 56.7651 23.0684ZM52.1353 25.0396C53.4888 25.0396 54.3965 24.2124 54.3965 23.0845C54.3965 21.9619 53.4888 21.1562 52.1353 21.1562H50.54V25.0396H52.1353ZM66.374 27.2847C63.7959 27.2847 61.7173 25.5015 61.7173 23.0361C61.7173 20.5708 63.7959 18.8252 66.374 18.8252C68.936 18.8252 71.0146 20.5708 71.0146 23.0361C71.0146 25.5015 68.936 27.2847 66.374 27.2847ZM66.374 25.2866C67.6309 25.2866 68.6782 24.4058 68.6782 23.0469C68.6782 21.6719 67.6309 20.8179 66.374 20.8179C65.0957 20.8179 64.0537 21.6719 64.0537 23.0469C64.0537 24.4058 65.0957 25.2866 66.374 25.2866ZM78.0186 19.1099H80.3496V23.0684C80.3496 25.3403 78.561 27.231 76.0957 27.231C73.625 27.231 71.8418 25.3403 71.8418 23.0684V19.1099H74.1729V23.2832C74.1729 24.4434 74.9946 25.2437 76.0957 25.2437C77.1968 25.2437 78.0186 24.4434 78.0186 23.2832V19.1099ZM90.3291 27.0054H88.0034L87.0581 24.5884H85.9785H85.6724C85.1836 24.5884 84.6089 24.5884 84.0986 24.5884V27H81.7676V19.1099H82.9976L86.3008 19.1045C88.5889 19.1099 89.9961 20.1948 89.9961 21.833C89.9961 22.6924 89.4751 23.5464 88.4546 24.0513L89.1313 24.0566L90.3291 27.0054ZM84.0986 22.9448H85.9839C87.1763 22.9448 87.7241 22.5527 87.7241 21.8545C87.7241 21.1724 87.1763 20.7856 85.9839 20.7856H84.0986V22.9448ZM99.186 27.2686C97.8003 27.2686 96.4092 26.9731 95.4316 26.5864V24.7495H95.6089C96.5059 25.2061 97.9131 25.5659 99.2236 25.5659C100.663 25.5659 101.152 25.1792 101.152 24.6958C101.152 24.3198 100.894 24.0459 99.7876 23.9492C99.4277 23.9224 98.8208 23.8901 98.4663 23.8579C96.5381 23.6646 95.3511 23.0361 95.3511 21.4033C95.3511 19.9155 96.8281 18.8413 99.6211 18.8413C100.873 18.8413 102.301 19.1475 102.935 19.4321V21.2153H102.779C101.786 20.7856 100.448 20.4902 99.2988 20.4902C98.0903 20.4902 97.7144 20.834 97.7144 21.2261C97.7144 21.6235 98.0635 21.9028 99.0518 21.9941C99.3955 22.0156 99.938 22.0317 100.33 22.0854C102.833 22.4561 103.569 23.1221 103.569 24.5991C103.569 26.3071 102.011 27.2686 99.186 27.2686ZM111.797 19.1099V20.9146H109.149V27H106.818V20.9146H104.17V19.1099H111.797ZM116.604 27.2847C114.026 27.2847 111.948 25.5015 111.948 23.0361C111.948 20.5708 114.026 18.8252 116.604 18.8252C119.167 18.8252 121.245 20.5708 121.245 23.0361C121.245 25.5015 119.167 27.2847 116.604 27.2847ZM116.604 25.2866C117.861 25.2866 118.909 24.4058 118.909 23.0469C118.909 21.6719 117.861 20.8179 116.604 20.8179C115.326 20.8179 114.284 21.6719 114.284 23.0469C114.284 24.4058 115.326 25.2866 116.604 25.2866ZM130.881 27.0054H128.555L127.61 24.5884H126.53H126.224C125.735 24.5884 125.161 24.5884 124.65 24.5884V27H122.319V19.1099H123.549L126.853 19.1045C129.141 19.1099 130.548 20.1948 130.548 21.833C130.548 22.6924 130.027 23.5464 129.006 24.0513L129.683 24.0566L130.881 27.0054ZM124.65 22.9448H126.536C127.728 22.9448 128.276 22.5527 128.276 21.8545C128.276 21.1724 127.728 20.7856 126.536 20.7856H124.65V22.9448ZM137.541 19.1099H139.872L138.083 24.8892H136.574V26.9946H134.249V24.8892H132.729L130.945 19.1099H133.276L134.415 23.2295H136.402L137.541 19.1099ZM139.587 27.0107V25.0234H141.741V27.0107H139.587Z" fill="#1D48FF"/>
</svg>
