<svg width="217" height="97" viewBox="0 0 217 97" fill="none" xmlns="http://www.w3.org/2000/svg">
	<g clip-path="url(#clip0_1382_1143)">
		<path d="M210.852 0H6.14831C2.75269 0 0 2.74066 0 6.12144V90.8786C0 94.2593 2.75269 97 6.14831 97H210.852C214.247 97 217 94.2593 217 90.8786V6.12144C217 2.74066 214.247 0 210.852 0Z" fill="#1D48FF"/>
		<path d="M148.848 22.5274L138.655 46.6988H137.204L127.079 22.5274H106.838V74.2899H106.945H131.034V57.2977L137.951 66.7539L144.867 57.2977V74.2899H168.79H169.055V22.5274H148.848Z" fill="#FFE4C3"/>
		<path d="M72.4913 71.2866C67.7083 74.7062 60.7323 76.1888 53.577 76.1888C36.506 76.1888 22.6562 64.409 22.6562 48.5085C22.6562 32.608 36.5102 20.6498 53.5813 20.6498C60.7365 20.6498 67.7126 22.1663 72.4956 25.586V38.2452L71.1515 38.2112C67.6784 35.7771 61.5899 33.8017 55.5696 33.8017C45.1546 33.8017 37.8244 40.5009 37.8244 48.5765C37.8244 56.652 45.1546 63.1048 55.5696 63.1048C61.2016 63.1048 67.6827 61.2017 71.1899 58.8398H72.4998V71.2866H72.4913Z" fill="#FFE4C3"/>
		<path d="M81.3447 22.5189H96.6792V74.3197H81.3447V22.5189Z" fill="#FFE4C3"/>
		<path d="M179.274 22.5189H194.608V74.3197H179.274V22.5189Z" fill="#FFE4C3"/>
		<path d="M119.318 73.2491C118.874 74.583 117.424 73.8014 117.351 73.0537C117.283 72.3061 117.82 71.2441 117.833 70.8108C117.846 70.3775 117.744 69.8974 117.223 68.8099C116.703 67.7224 115.303 62.7437 115.278 62.4761C115.252 62.2085 114.561 59.8253 115.094 57.9689C116.114 54.4175 116.771 53.1771 116.873 52.5484C117.594 48.02 117.368 48.7846 116.801 47.5102C115.802 45.2715 116.327 42.9351 116.127 44.3666C115.973 45.4584 116.31 47.1194 116.66 47.7821C117.07 48.5595 117.509 48.7379 116.886 49.2689C116.745 49.3921 115.572 50.042 114.932 50.3691C114.313 50.6877 113.567 50.7939 113.23 51.1168C112.415 51.8899 112.564 51.3589 112.197 51.5628C111.907 51.7243 112.048 51.6945 111.625 51.8347C111.548 51.8602 111.258 52.0216 111.083 51.7285C110.981 51.5586 111.049 51.4906 111.1 51.4184C111.369 51.0063 111.804 50.6495 112.031 50.5561C112.683 50.2842 112.837 50.1907 113.008 50.1355C113.554 49.9613 113.951 49.4091 114.488 48.9843C115.504 48.1814 115.836 48.0072 115.781 47.6844C115.73 47.3998 115.15 45.8025 115.047 45.2672C114.655 43.1899 114.117 41.6351 114.987 41.0617C116.25 40.229 118.465 41.0319 119.416 40.9215C121.84 40.6454 122.629 39.834 124.336 40.8068C126.047 41.7838 126.431 42.6844 127.561 44.5238C127.745 44.8254 129.191 46.8475 129.669 47.2511C130.992 48.3683 133.33 49.2137 135.041 50.3394C135.894 50.9001 136.201 50.5985 137.123 50.7472C139.154 51.0701 138.727 52.6418 137.772 52.3105C137.289 52.1448 136.863 52.5229 136.3 52.4847C135.404 52.4252 134.704 51.8475 134.435 51.7413C131.521 50.5646 130.309 49.9019 128.112 48.8398C127.561 48.5722 125.65 45.9299 125.189 45.246C124.95 44.8892 124.024 43.0965 123.794 44.1967C123.077 47.6631 123.38 48.1304 123.47 49.5068C123.61 51.5926 123.384 50.8832 123.713 51.8007C124.643 54.3666 123.495 58.194 123.073 60.1821C123.009 60.4795 122.889 60.8363 122.936 60.7514C123.427 59.8805 123.576 59.5364 123.717 57.6121C123.726 57.5144 123.709 56.6605 124.046 57.9349C124.08 58.0666 124.174 59.1711 124.169 59.8465C124.161 60.9553 123.892 61.6859 123.802 61.9621C123.674 62.3486 123.29 62.6757 122.915 63.5338C122.697 64.0266 121.733 65.5092 120.197 64.2858C119.89 64.0436 119.677 62.0173 119.711 61.584C119.723 61.3843 119.839 57.7905 119.766 56.5543C119.745 56.189 119.783 55.8236 119.745 56.189C119.647 57.1575 118.004 60.7131 118.115 61.2272C118.239 61.8219 118.567 62.1023 118.699 62.5738C118.874 63.1898 119.041 65.2968 118.981 65.934C118.921 66.5712 118.96 67.4421 119.015 68.0495C119.122 69.171 119.113 69.4429 119.143 69.7657C119.246 70.8405 119.493 72.6842 119.305 73.2491H119.318Z" fill="#1D48FF"/>
		<path d="M157.156 73.1387C157.663 74.6765 159.34 73.7759 159.421 72.9135C159.502 72.0512 158.879 70.8277 158.862 70.3307C158.845 69.8337 158.969 69.2772 159.566 68.024C160.164 66.7709 161.781 61.0275 161.806 60.7216C161.836 60.4158 162.634 57.663 162.02 55.522C160.846 51.4269 160.082 49.9996 159.967 49.2731C159.135 44.0523 159.396 44.9316 160.048 43.4661C161.2 40.8832 160.594 38.19 160.825 39.8425C161.004 41.0999 160.624 43.0667 160.223 43.8314C159.754 44.7277 159.233 44.8807 159.95 45.4966C160.117 45.6368 163.56 46.8815 164.23 47.3658C164.434 47.5102 164.307 47.7566 164.499 48.1686C164.669 48.534 164.801 48.1304 165.757 48.8313C165.979 48.997 166.273 49.2476 166.747 49.1669C167.272 49.0777 167.105 48.6444 167.003 48.415C166.939 48.2748 166.726 47.9308 166.465 47.5484C166.316 47.3318 166.013 47.0981 165.309 46.7286C164.878 46.5034 163.53 45.314 162.574 44.7447C161.29 43.9843 161.153 44.0395 161.222 43.67C161.281 43.3429 161.951 41.5034 162.066 40.8832C162.519 38.4916 163.137 36.6947 162.135 36.032C160.676 35.0719 158.124 35.998 157.032 35.8705C154.241 35.5519 153.328 34.6131 151.357 35.7388C149.386 36.8646 148.776 37.8119 147.637 40.0251C146.822 41.6054 146.497 41.6436 144.859 43.8824C143.681 45.4924 141.919 47.8458 140.05 49.2859C138.442 50.5263 137.324 51.6096 137.751 52.1703C138.331 52.935 139.129 52.1703 139.624 51.9494C140.264 51.6605 140.733 51.7413 141.347 50.59C142.073 49.2307 143.873 48.7166 146.753 45.4032C147.632 44.3921 149.838 41.6479 150.371 40.8577C150.649 40.4499 151.715 38.3811 151.98 39.6471C152.808 43.6402 152.458 44.1797 152.351 45.7685C152.189 48.1729 152.449 47.3573 152.07 48.4108C150.999 51.3674 152.321 55.7812 152.808 58.0751C152.88 58.4149 153.017 58.8313 152.966 58.7293C152.496 57.8075 152.287 57.166 152.065 55.11C152.053 54.9953 152.078 54.014 151.686 55.4838C151.643 55.6367 151.536 56.9111 151.545 57.6885C151.553 58.9672 151.861 59.8083 151.967 60.1269C152.112 60.573 152.556 60.9468 152.991 61.9408C153.239 62.5058 154.357 64.2178 156.123 62.8117C156.477 62.5313 156.72 60.1991 156.686 59.6979C156.669 59.4685 156.537 55.3224 156.622 53.8993C156.648 53.4787 156.605 53.0581 156.648 53.4787C156.759 54.5959 158.657 58.6911 158.529 59.29C158.384 59.9782 158.009 60.3011 157.855 60.8406C157.655 61.55 157.463 63.9799 157.531 64.7148C157.599 65.4497 157.557 66.4565 157.493 67.1532C157.373 68.4446 157.382 68.7589 157.343 69.1328C157.228 70.3732 156.938 72.4972 157.156 73.1514V73.1387Z" fill="#1D48FF"/>
		<path d="M145.217 38.1475C145.405 38.0795 145.545 37.9139 145.665 37.7524C146.42 36.7202 146.574 36.5205 147.017 36.1934C147.709 35.6921 148.374 35.6327 147.965 36.1297C147.666 36.495 147.133 36.5927 146.808 36.9283C146.48 37.2682 146.446 37.9691 146.894 38.1135C147.06 38.1645 147.239 38.122 147.401 38.0625C148.835 37.54 149.33 37.0133 149.94 35.6114C150.247 34.902 150.427 33.6998 151.459 34.1883C152.701 34.7788 153.895 34.3667 153.473 33.738C152.824 32.7695 154.006 32.3829 154.395 33.0286C155.163 34.0524 156.502 34.5409 157.782 34.1543C159.416 33.6573 160.33 31.9114 159.822 30.2589C159.54 29.3413 158.879 28.6446 158.064 28.2878C157.94 28.1688 157.804 28.0669 157.663 27.9777C156.468 27.2385 154.791 27.4297 153.806 28.4152C153.503 28.7211 153.247 29.0992 152.85 29.2733C152.231 29.5452 151.374 29.2691 150.939 29.7831C150.631 30.1442 150.721 30.7092 150.512 31.1382C149.97 32.2257 148.059 31.682 147.363 32.676C147.239 32.8502 147.175 33.1051 147.303 33.2792C147.619 33.704 148.332 33.0116 148.788 33.2792C148.583 33.8315 147.943 34.0694 147.363 34.1628C146.783 34.2563 146.446 34.0736 145.78 35.2503C145.558 35.6412 145.153 35.896 144.841 36.2189C144.53 36.546 144.261 36.9623 144.3 37.4168C144.334 37.8714 144.799 38.3004 145.221 38.1475H145.217Z" fill="#1D48FF"/>
		<path d="M130.121 42.9818C129.959 42.9223 129.835 42.7821 129.733 42.6377C129.08 41.7414 128.948 41.5672 128.56 41.2868C127.962 40.8535 127.386 40.8025 127.741 41.2316C128.001 41.546 128.462 41.6309 128.743 41.924C129.029 42.2171 129.059 42.8289 128.666 42.9521C128.521 42.9988 128.368 42.9606 128.227 42.9096C126.985 42.455 126.559 42.0005 126.025 40.7856C125.756 40.1738 125.603 39.1288 124.711 39.5494C123.636 40.0591 122.603 39.7023 122.966 39.1586C123.529 38.3174 122.505 37.9818 122.168 38.5426C121.503 39.4304 120.342 39.8552 119.233 39.5154C117.816 39.0821 117.027 37.574 117.466 36.1382C117.709 35.3438 118.286 34.7363 118.99 34.4305C119.096 34.3285 119.216 34.2393 119.335 34.1628C120.372 33.5214 121.823 33.6871 122.68 34.5452C122.945 34.8085 123.167 35.1399 123.508 35.2886C124.041 35.5222 124.788 35.2843 125.168 35.7304C125.436 36.0447 125.355 36.5333 125.539 36.9028C126.008 37.8459 127.664 37.3744 128.265 38.2367C128.372 38.3897 128.427 38.6106 128.317 38.7592C128.043 39.1288 127.425 38.5256 127.032 38.7592C127.207 39.2393 127.762 39.4432 128.265 39.5239C128.769 39.6046 129.059 39.4474 129.639 40.467C129.831 40.8068 130.181 41.0277 130.45 41.3081C130.719 41.5884 130.953 41.9538 130.919 42.3488C130.889 42.7439 130.484 43.1135 130.117 42.9818H130.121Z" fill="#1D48FF"/>
		<path d="M11.5072 89.1793C11.3578 89.1793 11.217 89.1794 11.0762 89.1751L11.1018 88.3255C11.5498 88.3382 12.0362 88.3255 12.5525 88.3127C12.9536 88.3043 13.3674 88.2915 13.7984 88.2915H15.1765V89.1411H13.7984C13.376 89.1411 12.9706 89.1539 12.5738 89.1624C12.2026 89.1709 11.8485 89.1793 11.5072 89.1793ZM203.236 89.1411H199.118V88.2915H203.206L203.236 89.1411ZM195.031 89.1411H190.943V88.2915H195.031V89.1411ZM186.856 89.1411H182.768V88.2915H186.856V89.1411ZM178.681 89.1411H174.593V88.2915H178.681V89.1411ZM170.506 89.1411H166.418V88.2915H170.506V89.1411ZM162.331 89.1411H158.243V88.2915H162.331V89.1411ZM154.156 89.1411H150.068V88.2915H154.156V89.1411ZM145.981 89.1411H141.893V88.2915H145.981V89.1411ZM137.806 89.1411H133.718V88.2915H137.806V89.1411ZM129.631 89.1411H125.543V88.2915H129.631V89.1411ZM121.456 89.1411H117.368V88.2915H121.456V89.1411ZM113.281 89.1411H109.193V88.2915H113.281V89.1411ZM105.106 89.1411H101.018V88.2915H105.106V89.1411ZM96.9307 89.1411H92.8432V88.2915H96.9307V89.1411ZM88.7557 89.1411H84.6682V88.2915H88.7557V89.1411ZM80.5807 89.1411H76.4932V88.2915H80.5807V89.1411ZM72.4058 89.1411H68.3183V88.2915H72.4058V89.1411ZM64.2308 89.1411H60.1433V88.2915H64.2308V89.1411ZM56.0558 89.1411H51.9683V88.2915H56.0558V89.1411ZM47.8808 89.1411H43.7933V88.2915H47.8808V89.1411ZM39.7058 89.1411H35.6183V88.2915H39.7058V89.1411ZM31.5308 89.1411H27.4433V88.2915H31.5308V89.1411ZM23.3558 89.1411H19.2683V88.2915H23.3558V89.1411ZM207.438 88.9627L207.178 88.1513C207.75 87.9687 208.279 87.6161 208.279 86.2439V85.1055H209.132V86.2439C209.132 87.7095 208.577 88.5974 207.434 88.9585L207.438 88.9627ZM7.88048 86.5371C7.87621 86.4436 7.87194 86.3501 7.87194 86.2482V82.4419H8.72528V86.2439C8.72528 86.3289 8.72528 86.4096 8.73382 86.4861L7.88048 86.5328V86.5371ZM209.136 81.0401H208.283V76.9705H209.136V81.0401ZM8.72955 78.3766H7.87621V74.3069H8.72955V78.3766ZM209.136 72.9008H208.283V68.8312H209.136V72.9008ZM8.72955 70.233H7.87621V66.1634H8.72955V70.233ZM209.136 64.7615H208.283V60.6919H209.136V64.7615ZM8.72955 62.0938H7.87621V58.0241H8.72955V62.0938ZM209.136 56.618H208.283V52.5484H209.136V56.618ZM8.72955 53.9545H7.87621V49.8849H8.72955V53.9545ZM209.136 48.4788H208.283V44.4091H209.136V48.4788ZM8.72955 45.811H7.87621V41.7414H8.72955V45.811ZM209.136 40.3395H208.283V36.2699H209.136V40.3395ZM8.72955 37.6717H7.87621V33.6021H8.72955V37.6717ZM209.136 32.196H208.283V28.1264H209.136V32.196ZM8.72955 29.5325H7.87621V25.4628H8.72955V29.5325ZM209.136 24.0567H208.283V19.9871H209.136V24.0567ZM8.72102 21.3974H7.86768V17.3278H8.72102V21.3974ZM209.128 15.926H208.275V13.7127C208.275 13.1392 208.176 12.5742 207.989 12.0347L208.795 11.7544C209.017 12.3831 209.132 13.0415 209.132 13.717V15.9302L209.128 15.926ZM8.73808 13.2922L7.88901 13.2242C8.00848 11.7501 8.67835 10.3822 9.77489 9.37545L10.3552 9.99992C9.41649 10.8623 8.84475 12.0347 8.74235 13.2964L8.73808 13.2922ZM205.586 9.24801C204.857 8.86144 204.033 8.65753 203.201 8.65753H201.806V7.80792H203.201C204.174 7.80792 205.138 8.04581 205.988 8.50036L205.586 9.24801ZM197.719 8.65753H193.631V7.80792H197.719V8.65753ZM189.544 8.65753H185.456V7.80792H189.544V8.65753ZM181.369 8.65753H177.281V7.80792H181.369V8.65753ZM173.194 8.65753H169.106V7.80792H173.194V8.65753ZM165.019 8.65753H160.931V7.80792H165.019V8.65753ZM156.844 8.65753H152.756V7.80792H156.844V8.65753ZM148.669 8.65753H144.581V7.80792H148.669V8.65753ZM140.494 8.65753H136.406V7.80792H140.494V8.65753ZM132.319 8.65753H128.231V7.80792H132.319V8.65753ZM124.144 8.65753H120.056V7.80792H124.144V8.65753ZM115.969 8.65753H111.881V7.80792H115.969V8.65753ZM107.794 8.65753H103.706V7.80792H107.794V8.65753ZM99.6188 8.65753H95.5313V7.80792H99.6188V8.65753ZM91.4438 8.65753H87.3563V7.80792H91.4438V8.65753ZM83.2688 8.65753H79.1813V7.80792H83.2688V8.65753ZM75.0938 8.65753H71.0063V7.80792H75.0938V8.65753ZM66.9188 8.65753H62.8313V7.80792H66.9188V8.65753ZM58.7438 8.65753H54.6563V7.80792H58.7438V8.65753ZM50.5688 8.65753H46.4813V7.80792H50.5688V8.65753ZM42.3938 8.65753H38.3063V7.80792H42.3938V8.65753ZM34.2188 8.65753H30.1313V7.80792H34.2188V8.65753ZM26.0438 8.65753H21.9563V7.80792H26.0438V8.65753ZM17.8688 8.65753H13.7941L13.7813 7.80792H17.8688V8.65753Z" fill="#FFE4C3"/>
	</g>
	<defs>
		<clipPath id="clip0_1382_1143">
			<rect width="217" height="97" fill="white"/>
		</clipPath>
	</defs>
</svg>
