<svg width="167" height="51" viewBox="0 0 167 51" fill="none" xmlns="http://www.w3.org/2000/svg">
<rect x="5.79395" y="6" width="160.206" height="44" rx="11" stroke="#FFF0DD" stroke-width="2"/>
<path d="M155 7H16.7939C11.2711 7 6.79395 11.4772 6.79395 17V39C6.79395 44.5228 11.2711 49 16.7939 49H155C160.523 49 165 44.5228 165 39V17C165 11.4772 160.523 7 155 7Z" fill="#FFF0DD"/>
<rect x="1.5" y="1.5" width="159.206" height="43" rx="10.5" stroke="#1D48FF"/>
<rect x="3" y="3" width="156.206" height="40" rx="9" stroke="black" stroke-width="2"/>
<path d="M150.206 1H12C5.92487 1 1 5.92487 1 12V34C1 40.0751 5.92485 45 12 45H150.206C156.281 45 161.206 40.0751 161.206 34V12C161.206 5.92487 156.281 1 150.206 1Z" fill="#FFF0DD" stroke="#1D48FF" stroke-width="2"/>
<path d="M43.4072 20.8286C41.8711 20.8286 40.7539 21.833 40.7539 23.0791C40.7539 24.3413 41.8711 25.292 43.4072 25.292C43.5898 25.292 43.7671 25.2812 43.9443 25.2651V23.0522H46.0122V26.5381C45.2871 27.0591 44.229 27.2847 43.144 27.2847C40.5552 27.2847 38.4551 25.4907 38.4551 23.0684C38.4551 20.6514 40.5552 18.8252 43.144 18.8252C44.229 18.8252 45.2871 19.0562 46.0122 19.5771V21.5054L45.8081 21.5C45.2603 21.1133 44.374 20.8286 43.4072 20.8286ZM47.3604 27V19.1099H49.686V27H47.3604ZM57.501 19.1099H59.832L57.9575 27H52.6025L50.728 19.1099H53.0591L54.3857 25.2007H56.1797L57.501 19.1099ZM68.501 20.8555H63.189V22.2573H66.7661V23.7451H63.189V25.249H68.501V27H60.8579V19.1099H68.501V20.8555ZM81.542 19.1099V20.9146H78.894V27H76.563V20.9146H73.915V19.1099H81.542ZM86.3491 27.2847C83.771 27.2847 81.6924 25.5015 81.6924 23.0361C81.6924 20.5708 83.771 18.8252 86.3491 18.8252C88.9111 18.8252 90.9897 20.5708 90.9897 23.0361C90.9897 25.5015 88.9111 27.2847 86.3491 27.2847ZM86.3491 25.2866C87.606 25.2866 88.6533 24.4058 88.6533 23.0469C88.6533 21.6719 87.606 20.8179 86.3491 20.8179C85.0708 20.8179 84.0288 21.6719 84.0288 23.0469C84.0288 24.4058 85.0708 25.2866 86.3491 25.2866ZM103.504 24.6421V26.5381C102.779 27.0591 101.721 27.2847 100.636 27.2847C98.0474 27.2847 95.9473 25.4907 95.9473 23.0684C95.9473 20.6514 98.0474 18.8252 100.636 18.8252C101.721 18.8252 102.779 19.0562 103.504 19.5771V21.5054L103.3 21.5C102.774 21.1294 101.85 20.8286 100.937 20.8286C99.3579 20.8286 98.2461 21.8491 98.2461 23.0791C98.2461 24.3252 99.3579 25.292 100.937 25.292C101.791 25.292 102.774 25.002 103.306 24.6421H103.504ZM104.853 27V19.1099H107.178V27H104.853ZM108.725 27V19.1099H111.797L113.333 22.7944H113.554L115.101 19.1099H118.167V27H115.836V22.0586H115.622L113.957 25.5981H112.931L111.276 22.0586H111.056V27H108.725ZM119.709 27V19.1099H122.035V27H119.709Z" fill="#1D48FF"/>
</svg>
