<svg width="167" height="51" viewBox="0 0 167 51" fill="none" xmlns="http://www.w3.org/2000/svg">
<rect x="5.79395" y="6" width="160.206" height="44" rx="11" stroke="#FFF0DD" stroke-width="2"/>
<path d="M155 7H16.7939C11.2711 7 6.79395 11.4772 6.79395 17V39C6.79395 44.5228 11.2711 49 16.7939 49H155C160.523 49 165 44.5228 165 39V17C165 11.4772 160.523 7 155 7Z" fill="#FFF0DD"/>
<rect x="1.5" y="1.5" width="159.206" height="43" rx="10.5" stroke="#1D48FF"/>
<rect x="3" y="3" width="156.206" height="40" rx="9" stroke="black" stroke-width="2"/>
<path d="M150.206 1H12C5.92487 1 1 5.92487 1 12V34C1 40.0751 5.92485 45 12 45H150.206C156.281 45 161.206 40.0751 161.206 34V12C161.206 5.92487 156.281 1 150.206 1Z" fill="#FFF0DD" stroke="#1D48FF" stroke-width="2"/>
<path d="M50.0889 25.2866C50.2393 25.2974 50.7388 25.3027 51.002 25.3027C52.248 25.3027 52.8872 24.6851 52.8872 23.5142V19.1152L55.2075 19.1099L55.2021 23.6377C55.2021 26.1782 53.8003 27.2847 51.2114 27.2847C50.916 27.2847 50.4863 27.2686 50.0889 27.231V25.2866ZM60.6699 27.2847C58.0918 27.2847 56.0132 25.5015 56.0132 23.0361C56.0132 20.5708 58.0918 18.8252 60.6699 18.8252C63.2319 18.8252 65.3105 20.5708 65.3105 23.0361C65.3105 25.5015 63.2319 27.2847 60.6699 27.2847ZM60.6699 25.2866C61.9268 25.2866 62.9741 24.4058 62.9741 23.0469C62.9741 21.6719 61.9268 20.8179 60.6699 20.8179C59.3916 20.8179 58.3496 21.6719 58.3496 23.0469C58.3496 24.4058 59.3916 25.2866 60.6699 25.2866ZM66.2075 27V19.1099H68.5332V27H66.2075ZM76.6382 19.1099H78.9639V27H75.8862L72.6045 21.9136H72.438V27H70.1123V19.1099H73.1953L76.4448 24.3306H76.6382V19.1099ZM91.9619 24.6421V26.5381C91.2368 27.0591 90.1787 27.2847 89.0938 27.2847C86.5049 27.2847 84.4048 25.4907 84.4048 23.0684C84.4048 20.6514 86.5049 18.8252 89.0938 18.8252C90.1787 18.8252 91.2368 19.0562 91.9619 19.5771V21.5054L91.7578 21.5C91.2314 21.1294 90.3076 20.8286 89.3945 20.8286C87.8154 20.8286 86.7036 21.8491 86.7036 23.0791C86.7036 24.3252 87.8154 25.292 89.3945 25.292C90.2485 25.292 91.2314 25.002 91.7632 24.6421H91.9619ZM93.3101 27V19.1099H95.6357V27H93.3101ZM97.1826 27V19.1099H100.255L101.791 22.7944H102.011L103.558 19.1099H106.625V27H104.294V22.0586H104.079L102.414 25.5981H101.388L99.7339 22.0586H99.5137V27H97.1826ZM108.167 27V19.1099H110.492V27H108.167Z" fill="#1D48FF"/>
</svg>
