<svg width="100" height="100" viewBox="0 0 100 100" fill="none" xmlns="http://www.w3.org/2000/svg">
<path d="M84.65 84.4067C81.1744 86.8956 76.9522 88.7533 71.9833 89.98C67.0144 91.2067 61.6944 91.82 56.0233 91.82C47.5078 91.82 39.6811 89.9978 32.5433 86.3533C25.4056 82.7089 19.7456 77.6956 15.5633 71.3133C11.3811 64.9311 9.29 57.8111 9.29 49.9533C9.29 42.0956 11.3833 34.9578 15.57 28.54C19.7567 22.1222 25.4233 17.0645 32.57 13.3667C39.7167 9.6689 47.5344 7.82001 56.0233 7.82001C61.6678 7.82001 66.9744 8.44223 71.9433 9.68667C76.9122 10.9311 81.1478 12.7978 84.65 15.2867V40.6993L82.5833 40.646C79.9966 38.8415 76.7522 37.3549 72.8499 36.186C68.9476 35.0171 64.9521 34.4326 60.8631 34.4326C56.783 34.4326 53.1718 35.0704 50.0295 36.3461C46.8872 37.6217 44.4315 39.444 42.6626 41.813C40.8936 44.182 40.0092 46.9799 40.0092 50.2067C40.0092 53.4156 40.8936 56.178 42.6626 58.4936C44.4315 60.8093 46.8805 62.5738 50.0095 63.7872C53.1385 65.0007 56.7564 65.6074 60.8631 65.6074C64.5965 65.6074 68.5143 65.014 72.6166 63.8274C76.7188 62.6407 80.0589 61.2118 82.6367 59.5407H84.65V84.4067Z" fill="#1D48FF"/>
</svg>
