<svg width="187" height="96" viewBox="0 0 187 96" fill="none" xmlns="http://www.w3.org/2000/svg">
<rect x="13" y="13" width="171" height="80" rx="13" fill="#1D48FF" stroke="#1D48FF" stroke-width="6" stroke-linejoin="round"/>
<path d="M58.5086 51.4219C58.5203 56.4141 54.1727 60.0117 48.782 60H46.7664H39.9344V42.7852H42.0203C43.7781 42.7852 46.532 42.7734 48.782 42.7734C54.1727 42.7734 58.5086 46.4297 58.5086 51.4219ZM48.1844 54.2812C50.0594 54.2812 51.4422 53.2266 51.4422 51.4688C51.4422 49.8398 50.0594 48.7969 48.1844 48.7969H46.7664V54.2812H48.1844ZM69.5013 60.6211C63.8177 60.6211 59.2356 56.6719 59.2356 51.3516C59.2356 46.0312 63.8177 42.1641 69.5013 42.1641C75.1497 42.1641 79.7317 46.0312 79.7317 51.3516C79.7317 56.6719 75.1497 60.6211 69.5013 60.6211ZM69.5013 54.8203C71.3645 54.8203 72.8763 53.3789 72.8763 51.3867C72.8763 49.3711 71.3645 47.9531 69.5013 47.9531C67.6145 47.9531 66.0911 49.3711 66.0911 51.3867C66.0911 53.3789 67.6145 54.8203 69.5013 54.8203ZM93.5838 42.7852H100.428V60H93.0447L88.322 52.7695H87.9588V60H81.115V42.7852H88.5095L93.2439 50.6016H93.5838V42.7852ZM115.862 60L115.51 57.0938H109.252L108.901 60H102.033L104.6 42.7852H120.174L122.74 60H115.862ZM109.826 52.2422H114.936L114.42 47.9297H110.342L109.826 52.2422ZM138.842 42.7852V47.9648H133.956V60H127.1V47.9648H122.202V42.7852H138.842ZM157.593 47.5898H147.773V49.5H153.808V53.0625H147.773V55.1836H157.593V60H140.917V42.7852H157.593V47.5898Z" fill="#1D48FF"/>
<rect x="3" y="3" width="171" height="80" rx="13" fill="#FFF0DD" stroke="#1D48FF" stroke-width="6" stroke-linejoin="round"/>
<path d="M48.5086 41.4219C48.5203 46.4141 44.1727 50.0117 38.782 50H36.7664H29.9344V32.7852H32.0203C33.7781 32.7852 36.532 32.7734 38.782 32.7734C44.1727 32.7734 48.5086 36.4297 48.5086 41.4219ZM38.1844 44.2812C40.0594 44.2812 41.4422 43.2266 41.4422 41.4688C41.4422 39.8398 40.0594 38.7969 38.1844 38.7969H36.7664V44.2812H38.1844ZM59.5013 50.6211C53.8177 50.6211 49.2356 46.6719 49.2356 41.3516C49.2356 36.0312 53.8177 32.1641 59.5013 32.1641C65.1497 32.1641 69.7317 36.0312 69.7317 41.3516C69.7317 46.6719 65.1497 50.6211 59.5013 50.6211ZM59.5013 44.8203C61.3645 44.8203 62.8763 43.3789 62.8763 41.3867C62.8763 39.3711 61.3645 37.9531 59.5013 37.9531C57.6145 37.9531 56.0911 39.3711 56.0911 41.3867C56.0911 43.3789 57.6145 44.8203 59.5013 44.8203ZM83.5838 32.7852H90.4275V50H83.0447L78.322 42.7695H77.9588V50H71.115V32.7852H78.5095L83.2439 40.6016H83.5838V32.7852ZM105.862 50L105.51 47.0938H99.2522L98.9006 50H92.0334L94.5998 32.7852H110.174L112.74 50H105.862ZM99.8264 42.2422H104.936L104.42 37.9297H100.342L99.8264 42.2422ZM128.842 32.7852V37.9648H123.956V50H117.1V37.9648H112.202V32.7852H128.842ZM147.593 37.5898H137.773V39.5H143.808V43.0625H137.773V45.1836H147.593V50H130.917V32.7852H147.593V37.5898Z" fill="#1D48FF"/>
</svg>
