<svg width="167" height="51" viewBox="0 0 167 51" fill="none" xmlns="http://www.w3.org/2000/svg">
<rect x="5.79412" y="6" width="160.206" height="44" rx="11" stroke="#FF4A01" stroke-width="2"/>
<path d="M155 7H16.7941C11.2713 7 6.79412 11.4772 6.79412 17V39C6.79412 44.5228 11.2713 49 16.7941 49H155C160.523 49 165 44.5228 165 39V17C165 11.4772 160.523 7 155 7Z" fill="#FF4A01"/>
<rect x="1.5" y="1.5" width="159.206" height="43" rx="10.5" stroke="#FFF0DD"/>
<rect x="3" y="3" width="156.206" height="40" rx="9" stroke="#FFF0DD" stroke-width="2"/>
<path d="M150.206 1H12C5.92487 1 1 5.92487 1 12V34C1 40.0751 5.92485 45 12 45H150.206C156.281 45 161.206 40.0751 161.206 34V12C161.206 5.92487 156.281 1 150.206 1Z" fill="#FF4A01" stroke="#FFF0DD" stroke-width="2"/>
<path d="M38.2295 25.1362H42.4351V27H35.8984V19.1099H38.2295V25.1362ZM51.3081 20.8555H45.9961V22.2573H49.5732V23.7451H45.9961V25.249H51.3081V27H43.665V19.1099H51.3081V20.8555ZM59.4185 27L59.2144 25.437H54.7993L54.5952 27H52.2642L53.4404 19.1099H60.5786L61.7549 27H59.4185ZM55.0249 23.6807H58.9888L58.6289 20.9092H55.3848L55.0249 23.6807ZM71.4551 27.0054H69.1294L68.1841 24.5884H67.1045H66.7983C66.3096 24.5884 65.7349 24.5884 65.2246 24.5884V27H62.8936V19.1099H64.1235L67.4268 19.1045C69.7148 19.1099 71.1221 20.1948 71.1221 21.833C71.1221 22.6924 70.6011 23.5464 69.5806 24.0513L70.2573 24.0566L71.4551 27.0054ZM65.2246 22.9448H67.1099C68.3022 22.9448 68.8501 22.5527 68.8501 21.8545C68.8501 21.1724 68.3022 20.7856 67.1099 20.7856H65.2246V22.9448ZM79.0874 19.1099H81.4131V27H78.3354L75.0537 21.9136H74.8872V27H72.5615V19.1099H75.6445L78.894 24.3306H79.0874V19.1099ZM87.3105 27V19.1099H90.3828L91.9189 22.7944H92.1392L93.686 19.1099H96.7529V27H94.4219V22.0586H94.207L92.542 25.5981H91.5161L89.8618 22.0586H89.6416V27H87.3105ZM102.339 27.2847C99.7607 27.2847 97.6821 25.5015 97.6821 23.0361C97.6821 20.5708 99.7607 18.8252 102.339 18.8252C104.901 18.8252 106.979 20.5708 106.979 23.0361C106.979 25.5015 104.901 27.2847 102.339 27.2847ZM102.339 25.2866C103.596 25.2866 104.643 24.4058 104.643 23.0469C104.643 21.6719 103.596 20.8179 102.339 20.8179C101.061 20.8179 100.019 21.6719 100.019 23.0469C100.019 24.4058 101.061 25.2866 102.339 25.2866ZM116.615 27.0054H114.29L113.344 24.5884H112.265H111.958C111.47 24.5884 110.895 24.5884 110.385 24.5884V27H108.054V19.1099H109.284L112.587 19.1045C114.875 19.1099 116.282 20.1948 116.282 21.833C116.282 22.6924 115.761 23.5464 114.741 24.0513L115.417 24.0566L116.615 27.0054ZM110.385 22.9448H112.27C113.462 22.9448 114.01 22.5527 114.01 21.8545C114.01 21.1724 113.462 20.7856 112.27 20.7856H110.385V22.9448ZM125.29 20.8555H119.978V22.2573H123.555V23.7451H119.978V25.249H125.29V27H117.646V19.1099H125.29V20.8555Z" fill="#FFF0DD"/>
</svg>
