<svg width="167" height="51" viewBox="0 0 167 51" fill="none" xmlns="http://www.w3.org/2000/svg">
<rect x="5.79395" y="6" width="160.206" height="44" rx="11" stroke="#FFF0DD" stroke-width="2"/>
<path d="M155 7H16.7939C11.2711 7 6.79395 11.4772 6.79395 17V39C6.79395 44.5228 11.2711 49 16.7939 49H155C160.523 49 165 44.5228 165 39V17C165 11.4772 160.523 7 155 7Z" fill="#FFF0DD"/>
<rect x="1.5" y="1.5" width="159.206" height="43" rx="10.5" stroke="#7100C9"/>
<rect x="3" y="3" width="156.206" height="40" rx="9" stroke="black" stroke-width="2"/>
<path d="M150.206 1H12C5.92487 1 1 5.92487 1 12V34C1 40.0751 5.92485 45 12 45H150.206C156.281 45 161.206 40.0751 161.206 34V12C161.206 5.92487 156.281 1 150.206 1Z" fill="#FFF0DD" stroke="#7100C9" stroke-width="2"/>
<path d="M42.7144 25.1362H46.9199V27H40.3833V19.1099H42.7144V25.1362ZM55.793 20.8555H50.481V22.2573H54.0581V23.7451H50.481V25.249H55.793V27H48.1499V19.1099H55.793V20.8555ZM64.4619 19.1099V20.9146H61.814V27H59.4829V20.9146H56.835V19.1099H64.4619ZM66.4277 21.0972H65.5146V19.1099H67.6685C67.9854 20.0713 67.7544 21.4141 66.9487 22.3218H66.0356L66.4277 21.0972ZM72.5615 27.2686C71.1758 27.2686 69.7847 26.9731 68.8071 26.5864V24.7495H68.9844C69.8813 25.2061 71.2886 25.5659 72.5991 25.5659C74.0386 25.5659 74.5273 25.1792 74.5273 24.6958C74.5273 24.3198 74.2695 24.0459 73.1631 23.9492C72.8032 23.9224 72.1963 23.8901 71.8418 23.8579C69.9136 23.6646 68.7266 23.0361 68.7266 21.4033C68.7266 19.9155 70.2036 18.8413 72.9966 18.8413C74.248 18.8413 75.6768 19.1475 76.3105 19.4321V21.2153H76.1548C75.1611 20.7856 73.8237 20.4902 72.6743 20.4902C71.4658 20.4902 71.0898 20.834 71.0898 21.2261C71.0898 21.6235 71.439 21.9028 72.4272 21.9941C72.771 22.0156 73.3135 22.0317 73.7056 22.0854C76.2085 22.4561 76.9443 23.1221 76.9443 24.5991C76.9443 26.3071 75.3867 27.2686 72.5615 27.2686ZM89.4858 24.6421V26.5381C88.7607 27.0591 87.7026 27.2847 86.6177 27.2847C84.0288 27.2847 81.9287 25.4907 81.9287 23.0684C81.9287 20.6514 84.0288 18.8252 86.6177 18.8252C87.7026 18.8252 88.7607 19.0562 89.4858 19.5771V21.5054L89.2817 21.5C88.7554 21.1294 87.8315 20.8286 86.9185 20.8286C85.3394 20.8286 84.2275 21.8491 84.2275 23.0791C84.2275 24.3252 85.3394 25.292 86.9185 25.292C87.7725 25.292 88.7554 25.002 89.2871 24.6421H89.4858ZM97.0806 19.1099H99.4116V27H97.0806V23.9761H93.4282V27H91.0972V19.1099H93.4282V22.2412H97.0806V19.1099ZM107.71 27L107.506 25.437H103.091L102.887 27H100.556L101.732 19.1099H108.87L110.046 27H107.71ZM103.316 23.6807H107.28L106.92 20.9092H103.676L103.316 23.6807ZM117.711 19.1099V20.9146H115.063V27H112.732V20.9146H110.084V19.1099H117.711ZM118.957 24.4326L118.758 19.1099H120.789L120.59 24.4326H118.957ZM118.699 27.0107V25.0234H120.853V27.0107H118.699Z" fill="#7100C9"/>
</svg>
