<svg width="167" height="51" viewBox="0 0 167 51" fill="none" xmlns="http://www.w3.org/2000/svg">
<rect x="5.79395" y="6" width="160.206" height="44" rx="11" stroke="#FFF0DD" stroke-width="2"/>
<path d="M155 7H16.7939C11.2711 7 6.79395 11.4772 6.79395 17V39C6.79395 44.5228 11.2711 49 16.7939 49H155C160.523 49 165 44.5228 165 39V17C165 11.4772 160.523 7 155 7Z" fill="#FFF0DD"/>
<rect x="1.5" y="1.5" width="159.206" height="43" rx="10.5" stroke="#7100C9"/>
<rect x="3" y="3" width="156.206" height="40" rx="9" stroke="black" stroke-width="2"/>
<path d="M150.206 1H12C5.92487 1 1 5.92487 1 12V34C1 40.0751 5.92485 45 12 45H150.206C156.281 45 161.206 40.0751 161.206 34V12C161.206 5.92487 156.281 1 150.206 1Z" fill="#FFF0DD" stroke="#7100C9" stroke-width="2"/>
<path d="M57.125 27.2686C55.7393 27.2686 54.3481 26.9731 53.3706 26.5864V24.7495H53.5479C54.4448 25.2061 55.8521 25.5659 57.1626 25.5659C58.6021 25.5659 59.0908 25.1792 59.0908 24.6958C59.0908 24.3198 58.833 24.0459 57.7266 23.9492C57.3667 23.9224 56.7598 23.8901 56.4053 23.8579C54.4771 23.6646 53.29 23.0361 53.29 21.4033C53.29 19.9155 54.7671 18.8413 57.5601 18.8413C58.8115 18.8413 60.2402 19.1475 60.874 19.4321V21.2153H60.7183C59.7246 20.7856 58.3872 20.4902 57.2378 20.4902C56.0293 20.4902 55.6533 20.834 55.6533 21.2261C55.6533 21.6235 56.0024 21.9028 56.9907 21.9941C57.3345 22.0156 57.877 22.0317 58.269 22.0854C60.772 22.4561 61.5078 23.1221 61.5078 24.5991C61.5078 26.3071 59.9502 27.2686 57.125 27.2686ZM62.625 27V19.1099H64.9507V27H62.625ZM70.9932 20.8286C69.457 20.8286 68.3398 21.833 68.3398 23.0791C68.3398 24.3413 69.457 25.292 70.9932 25.292C71.1758 25.292 71.353 25.2812 71.5303 25.2651V23.0522H73.5981V26.5381C72.873 27.0591 71.8149 27.2847 70.73 27.2847C68.1411 27.2847 66.041 25.4907 66.041 23.0684C66.041 20.6514 68.1411 18.8252 70.73 18.8252C71.8149 18.8252 72.873 19.0562 73.5981 19.5771V21.5054L73.394 21.5C72.8462 21.1133 71.96 20.8286 70.9932 20.8286ZM81.4561 19.1099H83.7817V27H80.7041L77.4224 21.9136H77.2559V27H74.9302V19.1099H78.0132L81.2627 24.3306H81.4561V19.1099ZM95.7485 19.1099H98.0796V23.0684C98.0796 25.3403 96.291 27.231 93.8257 27.231C91.355 27.231 89.5718 25.3403 89.5718 23.0684V19.1099H91.9028V23.2832C91.9028 24.4434 92.7246 25.2437 93.8257 25.2437C94.9268 25.2437 95.7485 24.4434 95.7485 23.2832V19.1099ZM107.726 22.2896C107.731 24.1479 106.142 25.4478 104.058 25.4424H101.829V27H99.4976V19.1099H101.829C102.602 19.1099 103.515 19.1099 104.058 19.1045C106.142 19.1045 107.726 20.4312 107.726 22.2896ZM103.8 23.6914C104.799 23.6914 105.454 23.1221 105.454 22.2842C105.454 21.4678 104.799 20.8984 103.8 20.8984H101.829V23.6914H103.8Z" fill="#7100C9"/>
</svg>
